<svg width="32" height="38" viewBox="0 0 32 38" fill="none" xmlns="http://www.w3.org/2000/svg">
<path d="M21.7143 9.5C21.7143 7.92528 21.1122 6.41505 20.0406 5.30155C18.969 4.18806 17.5155 3.5625 16 3.5625C14.4845 3.5625 13.031 4.18806 11.9594 5.30155C10.8878 6.41505 10.2857 7.92528 10.2857 9.5C10.2857 11.0747 10.8878 12.5849 11.9594 13.6984C13.031 14.8119 14.4845 15.4375 16 15.4375C17.5155 15.4375 18.969 14.8119 20.0406 13.6984C21.1122 12.5849 21.7143 11.0747 21.7143 9.5ZM6.85714 9.5C6.85714 6.98044 7.82041 4.56408 9.53502 2.78249C11.2496 1.00089 13.5752 0 16 0C18.4248 0 20.7504 1.00089 22.465 2.78249C24.1796 4.56408 25.1429 6.98044 25.1429 9.5C25.1429 12.0196 24.1796 14.4359 22.465 16.2175C20.7504 17.9991 18.4248 19 16 19C13.5752 19 11.2496 17.9991 9.53502 16.2175C7.82041 14.4359 6.85714 12.0196 6.85714 9.5ZM3.52143 34.4375H28.4786C27.8429 29.7395 23.9571 26.125 19.2643 26.125H12.7357C8.04286 26.125 4.15714 29.7395 3.52143 34.4375ZM0 35.7957C0 28.4852 5.7 22.5625 12.7357 22.5625H19.2643C26.3 22.5625 32 28.4852 32 35.7957C32 37.0129 31.05 38 29.8786 38H2.12143C0.95 38 0 37.0129 0 35.7957Z" fill="white" fill-opacity="0.45"/>
</svg>
